<svg id="Layer_1" data-name="Layer 1" xmlns="http://www.w3.org/2000/svg" viewBox="0 0 623 626"><defs><style>.cls-1{fill:#606060;}.cls-2{fill:none;stroke:#606060;stroke-miterlimit:10;stroke-width:15px;}</style></defs><title>coffee</title><path class="cls-1" d="M22,277H520a0,0,0,0,1,0,0v47.5A237.5,237.5,0,0,1,282.5,562h-23A237.5,237.5,0,0,1,22,324.5V277a0,0,0,0,1,0,0Z"/><path class="cls-1" d="M74.35,593H468c4.71,0,9.22-4.14,9-9a9.15,9.15,0,0,0-9-9H74.35c-4.7,0-9.21,4.14-9,9a9.17,9.17,0,0,0,9,9Z"/><path class="cls-1" d="M22,629.7H266.82c4.71,0,9.22-4.14,9-9a9.15,9.15,0,0,0-9-9H22c-4.71,0-9.22,4.14-9,9a9.15,9.15,0,0,0,9,9Z"/><path class="cls-2" d="M403.5,309.5H552.75A55.25,55.25,0,0,1,608,364.75v0A55.25,55.25,0,0,1,552.75,420H403.5a0,0,0,0,1,0,0V309.5a0,0,0,0,1,0,0Z"/></svg>